<svg width="132" height="132" viewBox="0 0 132 132" fill="none" xmlns="http://www.w3.org/2000/svg">
<rect width="132" height="132" rx="24" fill="#3565F7"/>
<path fill-rule="evenodd" clip-rule="evenodd" d="M41.2939 64.2351C41.2939 53.5142 49.985 44.8232 60.7058 44.8232H76.5883C87.3092 44.8232 96.0002 53.5142 96.0002 64.2351C96.0002 74.956 87.3092 83.647 76.5883 83.647H60.7058C49.9849 83.647 41.2939 74.956 41.2939 64.2351ZM60.7058 51.8821C53.8835 51.8821 48.3528 57.4128 48.3528 64.2351C48.3528 71.0575 53.8835 76.5882 60.7058 76.5882H76.5883C83.4107 76.5882 88.9413 71.0575 88.9413 64.2351C88.9413 57.4128 83.4107 51.8821 76.5883 51.8821H60.7058Z" fill="white" fill-opacity="0.4"/>
<path fill-rule="evenodd" clip-rule="evenodd" d="M60.7304 51.8821C53.8944 51.8821 48.3528 57.4237 48.3528 64.2597C48.3528 71.0956 53.8944 76.6372 60.7304 76.6372H70.853C72.8022 76.6372 74.3824 78.2174 74.3824 80.1666C74.3824 82.1159 72.8022 83.6961 70.853 83.6961H60.7304C49.9959 83.6961 41.2939 74.9941 41.2939 64.2597C41.2939 53.5252 49.9959 44.8232 60.7304 44.8232H70.853C72.8022 44.8232 74.3824 46.4034 74.3824 48.3527C74.3824 50.3019 72.8022 51.8821 70.853 51.8821H60.7304Z" fill="white"/>
<circle cx="40.4111" cy="82.7648" r="4.4118" fill="white"/>
</svg>
